<svg width="1698" height="1998" viewBox="0 0 1698 1998" fill="none" xmlns="http://www.w3.org/2000/svg">
<path d="M752.191 1467.86C747.169 1534.41 684.269 1702.9 588.175 1760.79M734.729 1543.59C695.431 1648.69 545.359 1834.22 309.813 1715.52" stroke="#858585" stroke-width="20"/>
<path d="M677.794 1267.81C631.282 1226.7 506.241 1183.21 378.171 1338.16" stroke="#858585" stroke-width="20"/>
<path d="M648.115 1630.46C569.135 1642.61 384.405 1658.89 281.865 1584.12M712.738 1520.34C596.15 1576.34 362.117 1647.15 217.45 1497.66M732.006 1467.2C632.931 1526.06 498.21 1651.31 191.384 1459.8C573.709 1589.33 719.213 1483.73 734.682 1389.12" stroke="#858585" stroke-width="20"/>
<path d="M154.545 1501.9C184.136 1618.19 281.963 1819.21 671.074 1749.68M665.588 1753.95C669.838 1750.74 674.214 1747.2 678.669 1743.33C756.208 1676.04 857.363 1511.19 724.066 1307.77C547.874 1038.88 328.982 1399.03 361.259 1421.02M619.15 1757.6C688.362 1713.86 806.947 1558.63 727.822 1360.34M303.367 1393.03C308.386 1327.66 544.623 1017.58 701.323 1304.35C711.817 1323.56 720.593 1342.23 727.822 1360.34M672.871 1596.31C517.082 1622.02 190.704 1620.8 152.933 1433.91M152.933 1433.91C243.823 1705.83 515.063 1692.93 635.225 1647.47M152.933 1433.91C195.346 1582.68 454.047 1680.01 573.999 1705.06M502.872 1730.9C454.689 1715.83 348.519 1678.06 309.293 1647.64C292.539 1634.64 408.617 1675.82 445.963 1687.17M445.963 1687.17C535.551 1711.62 491.276 1700.25 552.994 1714.26C515.572 1706.18 502.768 1704.45 445.963 1687.17ZM230.663 1511.74C206.235 1488.12 163.458 1429.16 165.649 1389.69M165.649 1389.69C143.002 1449.46 144.612 1506.66 154.387 1543.92C177.756 1647.49 304.492 1839.37 624.484 1778.38C1024.47 1702.13 753.614 1074.26 419.95 1179.29C307.591 1214.66 238.748 1269.53 198.387 1327.67M165.649 1389.69C173.458 1369.09 184.151 1348.17 198.387 1327.67M184.546 1349.61C184.134 1386.39 213.678 1471.52 288.749 1477.23M288.749 1477.23C360.073 1494.72 411.762 1505.41 619.961 1501.71M288.749 1477.23C395.737 1485.91 596.381 1508.14 695.801 1456.66M198.387 1327.67C180.142 1360.2 174.88 1429 299.787 1443.9C453.015 1462.18 532.359 1495.7 665.641 1452.35M671.044 1449.14C668.474 1450.01 668.169 1451.52 665.641 1452.35M665.641 1452.35C693.676 1436.27 743.566 1394.84 727.822 1360.34" stroke="#858585" stroke-width="20"/>
<path d="M287.665 1240.7C264.212 1264.82 215.771 1326.55 209.638 1380.51C206.701 1386.18 214.474 1397.19 253.329 1408.35M379.188 1430.07C414.467 1310.71 447.618 1284.09 459.783 1285.7C603.889 1264.74 702.131 1339.48 712.747 1354.9C723.362 1370.31 709.139 1394.67 660.422 1430.94C653.589 1436.03 645.317 1439.95 635.738 1442.88M379.188 1430.07C369.952 1428.83 360.594 1427.58 351.128 1426.35C348.426 1426 345.716 1425.65 342.997 1425.3C302.609 1420.1 273.698 1414.21 253.329 1408.35M379.188 1430.07C489.66 1444.92 582.715 1459.09 635.738 1442.88M635.738 1442.88C550.175 1414.81 353.907 1368.6 253.329 1408.35" stroke="#858585" stroke-width="20"/>
<path d="M654.517 1430.66C585.726 1372.1 401.059 1280.43 212.716 1382.22M666.868 1423.32C660.049 1399.34 602.913 1345.54 428.917 1322.22M690.604 1409.22C674.272 1382.29 608.451 1322.23 493.117 1306.07M439.635 1301.46C458.654 1302.14 476.468 1303.73 493.117 1306.07M702.117 1390.01C695.137 1358.55 643.566 1297.72 493.117 1306.07" stroke="#858585" stroke-width="20"/>
<path d="M946.975 1520.1C967.996 1507.19 1015.05 1496.37 1035.07 1556.41C1060.1 1631.46 840.88 1649.56 812.16 1658.79C794.386 1664.5 733.716 1717.56 664.037 1758.81M664.037 1758.81C621.119 1784.21 574.784 1805.13 532.949 1807.75C423.192 1814.61 241.338 1754.69 202.814 1658.86C164.29 1563.04 128.748 1542.23 166.923 1393.51C205.098 1244.8 390.2 1170.44 456.873 1176.04C523.545 1181.64 729.752 1178.6 817.185 1406.26C904.619 1633.91 660.566 1760.88 664.037 1758.81Z" stroke="#858585" stroke-width="20"/>
<path d="M1281.91 1358.94L1110.29 1467.02" stroke="#858585" stroke-width="20"/>
<path d="M1111.96 1466.28C1110.29 1465.21 1108.48 1464.09 1106.55 1462.92M1106.55 1462.92C1085.35 1450.08 1050.52 1432.55 1046.81 1445.12C1041.76 1462.27 1101.15 1459.57 1106.55 1462.92ZM1106.55 1462.92C1118.63 1476.2 1136.94 1506.5 1113.5 1521.43C1084.21 1540.1 1043.72 1552.78 1034.45 1555.51C1025.18 1558.24 953.776 1569.85 949.145 1516.53" stroke="#858585" stroke-width="20"/>
<path d="M744.587 1420.09C713.673 1554.47 598.979 1801.91 387.509 1716.59C176.04 1631.28 143.227 1503.23 155.693 1448.68" stroke="#858585" stroke-width="20"/>
<path d="M509.646 1180.81C445.89 1175.49 302.09 1205.82 236.93 1369.6M524.062 1184.37C478.999 1180.66 356.823 1217.3 291.834 1347.85M553.221 1209.73C511.885 1204.99 389.067 1245.32 334.254 1392.86M715.977 1339.85C684.718 1294.46 564.127 1236.36 482.657 1268.37M449.272 1288.21C457.905 1282.19 473.448 1271.99 482.657 1268.37M703.807 1307.17C685.948 1273.87 609.071 1220.38 482.657 1268.37" stroke="#858585" stroke-width="20"/>
<path d="M293.115 787.444C237.297 823.615 127.859 896.766 136.655 900.001M348.094 830.424C303.271 875.461 218.482 967.577 237.908 975.748M1019.98 619.566C1083.97 601.906 1221.61 569.437 1260.28 580.841M1042.2 677.016C1111.31 668.859 1254.33 662.76 1273.57 703.612M514.405 975.748C384.976 962.982 159.517 986.473 293.115 1182.56" stroke="#858585" stroke-width="20"/>
<path d="M218.436 375.305C243.03 352.44 285.348 323.873 344.658 296.918M995.01 222.747C915.834 212.358 842.171 208.46 774.179 209.478M774.179 209.478C822.514 135.743 934.35 -7.04809 995.01 11.6759C1055.67 30.3999 1079.23 191.54 1083.43 269.769C1178.12 404.596 1292.99 712.975 995.01 867.873C622.53 1061.5 313.045 938.301 218.436 867.873C142.749 811.531 111.151 644.958 104.814 568.715C33.265 500.344 -66.903 314.324 104.814 117.211C138.412 135.381 233.418 196.761 344.658 296.918M774.179 209.478C586.87 212.285 442.597 252.406 344.658 296.918" stroke="#858585" stroke-width="20"/>
<path d="M142.612 439.775L180.639 257.854M142.612 257.854C138.412 252.109 161.58 257.003 287.847 322.537M856.189 211.043C857.961 192.573 882.712 152.163 963.398 120.312M1007.61 105.508C991.281 110.125 976.591 115.104 963.398 120.312M963.398 120.312C992.872 134.952 1042.98 173.594 1007.61 211.043M439.497 257.854C437.588 351.474 461.213 536.968 570.987 529.989C595.041 520.627 620.789 449.136 531.357 238.065" stroke="#858585" stroke-width="20"/>
<path d="M608.098 220.832C613.519 317.431 646.72 509.309 736.152 504.033C847.942 497.437 645.208 233.599 675.447 214.023" stroke="#858585" stroke-width="20"/>
<ellipse cx="380.852" cy="671.91" rx="39.8595" ry="50.2144" fill="#858585"/>
<ellipse cx="918.269" cy="554.457" rx="39.8595" ry="50.2144" fill="#858585"/>
<path d="M733.633 658.508C683.009 658.505 638.871 668.083 619.094 687.232C619.094 729.788 671.934 734.893 698.355 732.126C728.517 717.161 755.624 658.509 733.633 658.508Z" stroke="#858585" stroke-width="20"/>
<path d="M704.998 726.164C699.118 753.47 684.381 803.486 636.732 793.613" stroke="#858585" stroke-width="20"/>
<path d="M698.354 730.211C715.229 748.651 762.22 777.744 815.183 746.594" stroke="#858585" stroke-width="20"/>
<path d="M295.406 1181.71C321.368 1194.76 386.259 1200.99 438.122 1121.5C406.967 1058.86 379.783 1059.37 370.086 1067.46" stroke="#858585" stroke-width="20"/>
<path d="M305.257 1136.61C309.609 1155.69 322.85 1193.25 340.993 1190.87M373.293 1109.59C374.286 1128.66 381.494 1163.8 402.386 1151.71" stroke="#858585" stroke-width="20"/>
<path d="M441.329 1115.54C479.203 1083.41 561.412 1026.39 587.252 1055.33C619.552 1091.5 587.252 1049.58 655.288 1145.76" stroke="#858585" stroke-width="20"/>
<path d="M658.495 1139.58C616.421 1094.41 568.559 995.623 713.703 961.919C895.133 919.79 852.982 1013.41 852.982 1007.24C783.877 1041.35 649.515 1131.24 742.796 1290.23" stroke="#858585" stroke-width="20"/>
<path d="M742.795 1284.06C772.957 1306.12 846.934 1327.98 901.546 1238.95C883.22 1198.81 864.71 1101.67 937.282 1034.27C1009.85 966.859 1015.02 976.108 1008.53 989.158" stroke="#858585" stroke-width="20"/>
<path d="M752.646 1238.95C753.638 1259.02 758.876 1299.17 771.888 1299.17M801.21 1238.95C796.858 1259.02 795.941 1299.17 827.096 1299.17" stroke="#858585" stroke-width="20"/>
<path d="M956.754 1022.13C989.13 1022.13 1061.67 1034.18 1092.83 1082.35M1173.92 1082.35C1105.81 1082.42 994.231 1119.88 1092.83 1269.16" stroke="#858585" stroke-width="20"/>
<path d="M1096.03 1272.14C1033.42 1293.21 926.974 1339.55 1002.11 1356.4C1096.03 1377.47 1190.18 1383.64 1300.37 1305.34C1410.56 1227.04 1362.22 1145.76 1465.76 1025.33" stroke="#858585" stroke-width="20"/>
<path d="M1112.3 799.36C1177.37 818.498 1295.06 865.876 1356.51 928.938M1394.29 992.132C1389.37 969.796 1375.68 948.604 1356.51 928.938M1356.51 928.938C1314.05 899.859 1282.27 758.592 1494.86 426.156" stroke="#858585" stroke-width="20"/>
<path d="M1491.65 429.136C1503.49 402.043 1514.19 311.133 1462.33 164.234" stroke="#858585" stroke-width="20"/>
<path d="M1462.33 173.168C1440.72 125.011 1439.01 40.7386 1605.04 88.9103" stroke="#858585" stroke-width="20"/>
<path d="M1608.25 88.9141C1654.68 121.965 1729.39 221.812 1656.82 356.795C1566.1 525.524 1524.18 688.082 1488.44 688.082" stroke="#858585" stroke-width="20"/>
<path d="M1491.65 691.062C1474.39 743.263 1445.06 883.792 1465.77 1028.31" stroke="#858585" stroke-width="20"/>
<path d="M1345.73 751.271C1378.18 766.307 1448.91 787.357 1472.18 751.271M1381.46 651.906C1399.79 674.035 1448.77 711.653 1498.07 685.099" stroke="#858585" stroke-width="20"/>
<path d="M1420.18 561.696C1448.28 575.739 1513.55 599.612 1549.84 582.76M1465.76 477.225C1481.95 494.318 1527.29 525.482 1579.16 513.397M1507.69 365.945C1539.07 380.981 1610.27 402.031 1643.99 365.945M1488.44 245.516C1526.39 274.665 1633.82 325.093 1682.93 281.687" stroke="#858585" stroke-width="20"/>
<path d="M869.729 1278.77C880.419 1304.72 877.391 1349.34 830.843 1383.21C784.294 1417.08 852.529 1421.44 892.465 1419.38C925.91 1397.32 991.506 1363.66 983.809 1349.19" stroke="#858585" stroke-width="20"/>
<path d="M584.223 1802C607.585 1804.05 603.848 1844.33 402 1989" stroke="#858585" stroke-width="20"/>
</svg>
